<?xml version="1.0" standalone="no"?>
<!DOCTYPE svg PUBLIC "-//W3C//DTD SVG 20010904//EN"
 "http://www.w3.org/TR/2001/REC-SVG-20010904/DTD/svg10.dtd">
<svg version="1.0" xmlns="http://www.w3.org/2000/svg"
 width="1080.000000pt" height="1080.000000pt" viewBox="0 0 1080.000000 1080.000000"
 preserveAspectRatio="xMidYMid meet">

<g transform="translate(0.000000,1080.000000) scale(0.100000,-0.100000)"
fill="#000000" stroke="none">
<path d="M0 5400 l0 -5400 5400 0 5400 0 0 5400 0 5400 -5400 0 -5400 0 0
-5400z m8664 2079 c20 -45 35 -83 34 -84 -9 -8 -149 -75 -156 -75 -9 0 -86
159 -80 165 4 5 152 73 159 74 3 1 23 -36 43 -80z m338 -81 c0 -29 2 -60 2
-68 2 -19 -25 -28 -85 -29 -53 -1 -59 7 -59 91 l0 47 53 4 c28 2 60 4 70 5 14
2 17 -7 19 -50z m286 -107 c37 -32 36 -46 -10 -88 l-23 -21 -38 31 -37 32 31
38 c17 20 34 37 37 37 4 -1 22 -14 40 -29z m-257 -171 c83 -37 133 -64 131
-72 -7 -25 -104 -243 -112 -252 -11 -11 -270 102 -270 118 0 10 111 266 115
266 2 0 63 -27 136 -60z m-6530 -117 c44 -93 106 -222 137 -288 31 -66 80
-167 108 -225 l52 -105 67 140 c37 77 93 194 125 260 31 66 85 180 120 253
l63 132 303 0 304 0 4 -22 c3 -13 21 -347 41 -743 43 -870 64 -1271 68 -1348
l3 -57 -300 2 -301 3 -2 55 c-2 30 -10 204 -18 385 -8 182 -16 365 -17 407 -2
43 -5 78 -8 78 -3 0 -84 -168 -179 -373 -96 -204 -197 -419 -225 -477 l-50
-105 -34 75 c-19 41 -116 246 -214 455 -99 209 -185 391 -190 405 -6 14 -12
21 -14 15 -3 -9 -44 -841 -44 -898 l0 -27 -301 0 -302 0 7 123 c13 249 50 964
81 1567 8 157 17 329 21 383 l6 97 305 0 304 0 80 -167z m2022 -75 c-1 -134
-4 -244 -7 -245 -3 -2 -130 -3 -281 -3 l-275 0 0 245 0 245 283 0 282 0 -2
-242z m5022 192 c3 -11 11 -20 17 -20 5 0 7 -7 4 -16 -3 -8 -2 -12 3 -9 6 3
21 -13 35 -36 l24 -42 -34 -23 c-19 -13 -42 -21 -51 -18 -14 4 -15 4 -5 -4 11
-7 7 -14 -16 -31 -17 -11 -33 -21 -36 -21 -6 0 -84 113 -92 134 -4 10 17 29
63 60 37 25 71 46 75 46 4 0 10 -9 13 -20z m-202 -294 c20 -30 37 -56 37 -59
0 -5 -76 -62 -106 -80 -6 -3 -29 19 -52 53 l-42 59 33 24 c47 35 81 57 87 57
3 0 22 -25 43 -54z m307 -136 l0 -71 -67 3 -68 3 -3 68 -3 67 71 0 70 0 0 -70z
m-950 -525 l0 -575 -572 2 -573 3 -3 560 c-1 308 0 566 3 573 3 9 128 12 575
12 l570 0 0 -575z m435 435 c50 -34 91 -64 93 -65 2 -2 -2 -13 -8 -25 -16 -30
-181 -260 -186 -260 -3 0 -67 43 -144 96 -86 60 -137 101 -133 108 4 6 49 71
101 144 l94 132 46 -33 c26 -19 88 -62 137 -97z m-3464 22 c86 -24 144 -58
201 -120 96 -103 118 -179 119 -427 l1 -180 14 70 c64 321 268 550 564 632 99
27 319 25 423 -5 241 -69 401 -223 481 -464 14 -42 26 -81 26 -87 0 -9 -85
-76 -518 -406 -184 -140 -207 -161 -189 -168 29 -11 125 0 198 23 89 27 196
100 283 191 43 44 79 79 80 77 1 -2 23 -115 50 -253 26 -137 49 -255 51 -261
2 -6 33 17 68 51 131 125 311 209 477 222 l80 6 0 -287 0 -286 -22 0 c-31 -1
-107 -36 -137 -63 -13 -12 -34 -44 -47 -72 -21 -45 -24 -64 -24 -187 l0 -138
115 0 115 0 0 -285 0 -285 -115 0 -115 0 -2 -287 -3 -288 -283 -3 -283 -2 3
767 3 768 23 70 c13 39 37 96 53 128 16 32 29 60 29 63 0 3 -18 -8 -39 -25
-52 -42 -210 -115 -289 -136 -35 -9 -92 -19 -128 -22 -35 -3 -64 -9 -63 -12 0
-3 31 -21 69 -39 85 -40 177 -128 213 -203 57 -116 57 -123 57 -761 l0 -588
-265 0 -265 0 0 40 c0 22 -2 40 -4 40 -2 0 -27 -16 -56 -35 -28 -19 -80 -43
-114 -54 -300 -93 -582 50 -682 344 -23 68 -27 96 -27 190 0 128 18 208 66
299 100 189 328 297 561 267 49 -6 114 -21 144 -31 31 -11 57 -20 58 -20 2 0
-1 14 -7 32 -12 42 -54 86 -104 109 -128 57 -381 12 -497 -90 -20 -17 -38 -31
-42 -31 -3 0 -6 112 -6 249 l0 249 43 16 c23 8 58 20 77 25 61 19 241 41 335
41 l90 1 -85 44 c-230 122 -371 313 -428 585 -7 32 -10 -50 -11 -287 l-1 -333
-285 0 -285 0 0 483 c0 481 0 483 -22 527 -49 97 -171 86 -229 -20 -11 -20
-15 -121 -17 -507 l-3 -483 -280 0 -279 0 0 803 0 802 280 0 280 0 1 -30 c1
-16 0 -40 -1 -52 -1 -23 14 -31 24 -14 15 23 120 83 187 105 93 32 213 35 310
8z m-1151 -817 l0 -800 -280 -3 -280 -2 0 805 0 805 280 -2 281 -3 -1 -800z
m4926 724 c13 -26 13 -33 3 -40 -19 -11 -27 0 -9 12 12 8 11 9 -5 7 -13 -3
-19 -10 -17 -23 2 -15 1 -17 -6 -6 -6 7 -15 10 -22 6 -8 -5 -11 -1 -8 11 2 12
11 18 23 16 17 -3 17 -2 5 13 -12 14 -12 18 1 26 19 12 16 13 35 -22z m-61 1
c-3 -5 -12 -10 -18 -10 -7 0 -6 4 3 10 19 12 23 12 15 0z m-665 -1300 l0 -290
115 0 115 0 0 -280 0 -280 -115 0 -115 0 0 -140 c0 -104 4 -150 16 -178 30
-73 120 -142 184 -142 l30 0 0 -291 0 -291 -57 6 c-210 24 -382 106 -519 248
-104 108 -164 214 -206 363 -22 79 -22 92 -26 823 l-3 742 290 0 291 0 0 -290z
m-2812 -567 l2 -293 -27 11 c-16 6 -60 11 -99 12 -61 0 -79 -4 -118 -27 -26
-15 -60 -46 -77 -68 -56 -79 -59 -102 -59 -545 l0 -403 -285 0 -285 0 0 800 0
800 285 0 285 0 0 -59 0 -60 33 30 c70 66 162 99 267 96 l75 -2 3 -292z m-998
-3 l0 -280 -91 0 c-116 0 -168 -14 -219 -57 -111 -95 -114 -256 -6 -350 50
-45 97 -57 213 -58 l103 0 0 -282 0 -283 -129 0 c-77 0 -159 6 -201 15 -157
33 -303 116 -416 237 -370 396 -245 1038 249 1268 110 52 196 69 355 69 l142
1 0 -280z m-1000 -282 c0 -2 -7 -38 -15 -81 -19 -100 -19 -204 0 -302 8 -43
12 -82 9 -86 -3 -5 -494 -9 -1105 -9 l-1099 0 0 240 0 240 1105 0 c608 0 1105
-1 1105 -2z m61 -610 c86 -170 223 -309 387 -392 28 -14 52 -27 52 -29 0 -1
-19 -1 -42 0 -24 1 -634 2 -1355 2 l-1313 1 0 240 0 240 1120 0 1120 0 31 -62z"/>
<path d="M9581 7043 c7 -12 15 -20 18 -17 3 2 -3 12 -13 22 -17 16 -18 16 -5
-5z"/>
<path d="M9595 7000 c-3 -5 -1 -10 4 -10 6 0 11 5 11 10 0 6 -2 10 -4 10 -3 0
-8 -4 -11 -10z"/>
<path d="M9504 6935 c-4 -8 -11 -12 -17 -8 -6 3 -7 1 -3 -5 10 -16 14 -15 26
8 6 11 8 20 5 20 -3 0 -8 -7 -11 -15z"/>
<path d="M7704 6577 c-2 -7 -3 -71 -2 -143 l3 -129 138 -3 137 -3 0 -64 c0
-71 4 -68 -75 -66 -22 1 -46 -2 -53 -7 -9 -6 -12 -56 -10 -213 l3 -204 73 -3
72 -3 0 71 0 71 138 -3 137 -3 3 -67 3 -68 70 0 69 0 -2 213 -3 212 -67 3 -68
3 0 64 0 65 140 0 140 0 0 145 0 146 -141 -3 -141 -3 -1 -135 -2 -135 -137 -3
-138 -3 0 141 0 140 -140 0 c-106 0 -142 -3 -146 -13z"/>
<path d="M6715 6121 c-123 -31 -210 -137 -222 -272 -3 -33 -3 -59 0 -59 8 0
392 291 395 300 7 19 -124 43 -173 31z"/>
<path d="M6475 4075 c-22 -8 -41 -15 -42 -15 -2 0 -16 -19 -33 -42 -55 -75
-37 -173 43 -232 21 -16 43 -21 86 -21 48 0 64 5 95 29 146 111 22 344 -149
281z"/>
<path d="M9420 6541 c0 -6 4 -13 10 -16 6 -3 7 1 4 9 -7 18 -14 21 -14 7z"/>
</g>
</svg>
