<?xml version="1.0" standalone="no"?>
<!DOCTYPE svg PUBLIC "-//W3C//DTD SVG 20010904//EN"
 "http://www.w3.org/TR/2001/REC-SVG-20010904/DTD/svg10.dtd">
<svg version="1.0" xmlns="http://www.w3.org/2000/svg"
 width="3464.000000pt" height="3464.000000pt" viewBox="0 0 3464.000000 3464.000000"
 preserveAspectRatio="xMidYMid meet">

<g transform="translate(0.000000,3464.000000) scale(0.100000,-0.100000)"
fill="#000000" stroke="none">
<path d="M0 17320 l0 -17320 17320 0 17320 0 0 17320 0 17320 -17320 0 -17320
0 0 -17320z m12843 9955 c85 -47 235 -178 264 -231 13 -22 29 -69 36 -105 12
-58 44 -120 142 -280 11 -18 35 -58 53 -88 19 -31 59 -92 91 -136 32 -44 63
-90 69 -101 6 -12 46 -68 89 -124 43 -56 83 -110 89 -120 5 -10 44 -55 84
-100 41 -45 82 -94 91 -109 24 -38 69 -78 104 -91 76 -30 673 -22 1093 15 220
18 663 54 757 60 39 3 156 12 260 20 470 37 591 46 750 56 94 5 267 18 385 29
478 43 585 52 805 71 438 36 710 59 815 69 58 5 139 9 180 10 41 0 161 9 265
19 180 19 511 50 765 72 63 5 160 14 215 19 55 6 183 17 285 26 102 8 226 19
275 24 50 5 128 10 175 10 47 0 159 9 250 19 91 11 210 22 265 26 55 3 129 10
165 15 36 5 124 14 195 20 72 5 202 17 290 25 88 9 246 22 350 31 105 8 197
17 205 19 8 2 103 9 210 15 107 6 231 15 275 20 44 5 134 14 200 20 66 6 188
17 270 25 184 19 655 63 750 70 39 4 131 13 206 21 75 7 215 17 310 20 145 6
185 4 239 -10 70 -18 194 -81 246 -124 18 -15 66 -54 107 -87 42 -33 82 -75
91 -93 9 -18 23 -35 31 -38 8 -3 38 -40 66 -82 29 -43 66 -94 83 -114 79 -94
128 -181 153 -270 21 -78 26 -329 5 -336 -6 -2 -12 -19 -12 -38 0 -24 -5 -34
-15 -34 -8 0 -15 -4 -15 -10 0 -13 -10676 -13 -10705 0 -24 10 -17 11 83 12
60 1 70 3 61 14 -9 12 -1 14 49 14 34 0 83 4 109 10 47 9 262 20 396 19 60 0
67 2 67 20 0 19 7 20 238 21 146 0 238 4 240 10 2 6 25 10 50 10 26 0 57 3 70
6 23 7 31 33 10 36 -44 5 -84 7 -268 13 -223 8 -412 -4 -496 -31 -35 -11 -116
-18 -279 -24 -126 -5 -255 -14 -285 -20 -30 -6 -82 -17 -115 -25 -43 -9 -157
-13 -407 -14 -341 -1 -348 -1 -365 20 -10 11 -34 27 -53 35 -19 8 -44 23 -55
33 -27 25 -89 35 -115 19 -29 -19 -25 -35 13 -43 36 -8 67 -32 67 -52 0 -11
51 -30 70 -26 3 0 15 -14 27 -33 l22 -34 -3544 0 c-2357 0 -3545 3 -3545 10 0
6 -7 10 -15 10 -9 0 -15 9 -15 24 0 40 -12 86 -21 80 -5 -3 -9 2 -9 11 0 9 -9
19 -21 22 -16 4 -18 8 -7 14 11 8 11 11 -1 18 -7 5 -11 13 -8 17 3 5 0 36 -7
69 l-13 60 -8 -120 c-8 -115 0 -2034 10 -2510 3 -126 7 -714 10 -1305 3 -591
8 -1109 10 -1150 3 -41 7 -232 10 -425 3 -192 8 -404 11 -470 12 -292 39
-2876 39 -3690 -1 -694 -9 -978 -30 -1085 -9 -47 -19 -95 -21 -107 -8 -40 -22
-25 -28 30 -3 28 -10 95 -15 147 -6 52 -15 232 -21 400 -5 168 -14 375 -20
460 -14 225 -19 323 -25 525 -3 99 -10 293 -15 430 -5 138 -14 444 -20 680 -5
237 -14 612 -20 835 -5 223 -14 623 -20 890 -6 267 -17 769 -25 1115 -16 668
-28 1207 -45 1940 -6 248 -15 619 -20 825 -5 206 -12 506 -15 665 -3 160 -12
614 -20 1010 -9 396 -16 907 -18 1135 -2 381 0 419 16 468 49 138 158 281 266
346 64 39 149 57 366 76 72 6 193 17 270 25 77 8 262 26 410 40 149 14 344 32
435 40 91 9 237 20 325 26 144 9 548 44 795 69 179 19 515 50 650 60 74 6 198
17 275 25 77 8 219 19 315 25 96 5 240 16 320 24 177 18 317 32 515 51 245 23
735 75 800 85 113 16 182 7 258 -35z m1845 -1884 c-81 -3 -180 -3 -220 0 -40
3 26 6 147 6 203 -1 209 -1 73 -6z m-288 -21 c0 -5 -4 -10 -10 -10 -5 0 -10 5
-10 10 0 6 5 10 10 10 6 0 10 -4 10 -10z m280 0 c0 -5 -4 -10 -10 -10 -5 0
-10 5 -10 10 0 6 5 10 10 10 6 0 10 -4 10 -10z m13082 -681 c115 -24 270 -123
316 -202 10 -16 43 -44 74 -63 39 -24 60 -44 64 -61 4 -14 0 -76 -9 -137 -9
-61 -19 -154 -22 -206 -5 -89 -46 -449 -80 -710 -8 -64 -24 -190 -35 -280 -10
-91 -26 -214 -35 -275 -8 -60 -20 -161 -25 -224 -11 -129 -60 -538 -89 -746
-11 -77 -23 -174 -26 -215 -4 -41 -13 -115 -21 -165 -8 -49 -23 -173 -34 -275
-11 -102 -25 -219 -30 -260 -13 -96 -80 -557 -86 -590 -2 -14 -9 -72 -14 -130
-13 -138 -20 -179 -31 -186 -5 -3 -9 -18 -9 -34 0 -16 -4 -40 -9 -53 -5 -13
-12 -87 -15 -163 -5 -118 -9 -141 -24 -154 -24 -20 -47 -58 -56 -92 -3 -16
-11 -28 -16 -28 -6 0 -10 -31 -10 -70 0 -56 -3 -70 -15 -70 -8 0 -15 -7 -15
-15 0 -9 -9 -15 -25 -15 -20 0 -25 -5 -25 -25 l0 -25 -115 0 -115 0 0 -30 0
-30 -184 0 c-138 0 -186 -3 -190 -12 -5 -10 -7 -10 -12 0 -4 9 -40 12 -131 12
l-124 0 3 -27 3 -28 -176 -3 -175 -2 4 -30 4 -30 -261 0 -261 0 0 -25 c0 -23
-16 -31 -52 -26 -3 0 -134 1 -290 1 l-283 1 -3 -30 c-2 -17 -9 -31 -15 -32
-42 -3 -365 3 -381 8 -17 5 -18 1 -14 -33 l5 -39 -348 2 -349 3 0 -30 c0 -25
-4 -30 -25 -30 -14 0 -28 -7 -31 -15 -6 -13 -8 -14 -18 -1 -9 11 -54 14 -251
12 l-240 -1 -3 -22 c-3 -23 -5 -23 -152 -23 l-150 0 10 -25 c6 -15 6 -26 0
-30 -6 -3 -149 -6 -320 -5 l-310 1 0 -31 0 -30 -175 0 c-110 0 -175 -4 -175
-10 0 -5 -4 -10 -9 -10 -5 0 -7 18 -4 40 5 38 4 40 -20 40 -14 0 -27 -6 -30
-12 -2 -8 -8 -9 -13 -4 -5 5 -4 11 4 13 7 3 12 25 12 60 0 50 -2 54 -22 53
-61 -5 -98 0 -98 15 0 8 -9 15 -20 15 -13 0 -18 5 -14 15 4 10 0 15 -12 16
-17 1 -17 2 -1 6 21 5 23 23 2 23 -8 0 -15 7 -15 15 0 10 -10 15 -34 15 -30 0
-35 4 -41 30 -3 16 -15 32 -25 35 -11 4 -17 12 -13 21 3 7 0 14 -6 14 -6 0
-11 6 -11 14 0 8 -11 17 -25 20 -13 3 -29 15 -35 26 -6 10 -17 17 -24 14 -10
-4 -16 5 -21 25 -6 28 -96 121 -118 121 -4 0 -27 18 -49 40 -23 22 -46 40 -52
40 -5 0 -21 13 -35 28 -31 33 -75 62 -94 62 -8 0 -43 27 -78 60 -35 33 -69 60
-76 60 -7 0 -24 11 -39 25 -14 13 -30 22 -35 19 -5 -3 -9 0 -9 5 0 6 -11 11
-24 11 -27 0 -92 25 -100 39 -9 15 -132 81 -151 81 -8 0 -33 9 -55 20 -22 11
-48 20 -60 20 -24 0 -136 38 -165 55 -11 7 -38 16 -59 20 -22 4 -51 15 -64 26
-13 10 -40 21 -61 24 -20 3 -72 17 -116 30 -44 13 -123 33 -175 46 -52 12
-102 28 -110 34 -8 7 -42 13 -75 13 -33 1 -82 6 -108 12 -27 6 -52 8 -58 5 -5
-3 -18 3 -29 13 -21 20 -95 39 -185 48 -27 3 -66 10 -85 15 -19 5 -53 9 -76 9
-72 0 -134 12 -127 24 4 6 0 5 -9 -2 -11 -8 -18 -9 -23 -3 -8 14 -226 12 -244
-2 -7 -6 -43 -12 -80 -14 -168 -5 -228 -11 -246 -21 -11 -6 -40 -15 -65 -21
-25 -5 -58 -14 -75 -20 -16 -6 -51 -13 -77 -16 -26 -4 -53 -12 -60 -18 -7 -7
-34 -12 -60 -12 -27 0 -48 -3 -48 -6 0 -4 -35 -10 -77 -13 -43 -3 -91 -8 -108
-11 -91 -15 -183 -26 -290 -35 -66 -6 -127 -13 -135 -15 -9 -3 -44 -7 -80 -10
-35 -3 -67 -9 -70 -13 -6 -8 -24 -14 -67 -20 -18 -2 -33 -8 -33 -13 0 -5 -9
-9 -20 -9 -26 0 -100 -30 -100 -41 0 -5 -6 -6 -14 -3 -12 5 -156 -56 -206 -87
-26 -16 -65 -32 -72 -31 -7 2 -12 -21 -9 -40 0 -5 -5 -8 -13 -8 -8 0 -16 -7
-20 -15 -3 -8 -15 -15 -26 -15 -26 0 -67 -21 -134 -68 -54 -39 -77 -63 -70
-74 2 -4 -1 -10 -7 -14 -8 -4 -9 -3 -5 4 4 7 3 12 -3 12 -5 0 -13 -9 -16 -21
-4 -11 -9 -18 -12 -16 -2 3 -21 -10 -41 -29 -20 -19 -43 -34 -50 -34 -14 0
-92 -78 -92 -92 0 -6 -6 -8 -14 -5 -14 6 -56 -26 -56 -42 0 -5 -20 -16 -45
-25 -25 -10 -46 -23 -47 -29 0 -7 -2 -18 -2 -24 -1 -7 -6 -14 -11 -15 -5 -2
-26 -20 -46 -40 -20 -21 -41 -38 -46 -38 -17 0 -53 -37 -53 -54 0 -9 -7 -19
-15 -22 -9 -4 -15 -19 -15 -35 0 -16 -5 -29 -11 -29 -7 0 -9 -9 -5 -23 3 -13
1 -36 -3 -52 -5 -17 -10 -23 -11 -15 -1 8 -5 4 -9 -9 -9 -33 -31 -39 -32 -9
l0 23 -9 -23 c-8 -18 -14 -21 -36 -16 -19 5 -25 4 -20 -5 5 -7 -4 -11 -28 -11
-30 0 -36 -4 -36 -21 0 -12 -18 -39 -40 -61 -22 -22 -40 -47 -40 -56 0 -8 -12
-26 -26 -39 -14 -13 -29 -36 -33 -51 -6 -23 -13 -27 -49 -30 -25 -2 -42 1 -42
7 0 6 -13 11 -30 11 -20 0 -30 5 -30 15 0 13 -30 15 -210 15 l-210 0 -6 -25
-6 -25 -154 0 c-96 0 -154 -4 -154 -10 0 -6 -6 -9 -12 -8 -8 2 -14 -10 -16
-29 -2 -18 -7 -33 -12 -33 -5 0 -12 -17 -16 -37 -4 -21 -11 -40 -15 -44 -11
-6 -29 -99 -29 -145 0 -19 -4 -34 -10 -34 -5 0 -10 -9 -10 -20 0 -12 -7 -20
-16 -20 -11 0 -15 -6 -11 -19 3 -14 0 -17 -14 -14 -13 4 -19 0 -19 -11 0 -11
-9 -16 -30 -16 -20 0 -30 5 -30 15 0 8 -4 15 -10 15 -14 0 -12 -37 3 -43 6 -3
-7 -6 -30 -6 -41 -1 -43 -2 -43 -31 0 -27 -3 -30 -30 -30 -29 0 -29 -1 -32
-62 l-3 -62 -52 3 c-51 2 -53 1 -53 -23 0 -26 -1 -26 -75 -26 -43 0 -75 -4
-75 -10 0 -19 -35 -50 -57 -50 -20 0 -23 -5 -23 -40 0 -22 -4 -40 -10 -40 -5
0 -10 5 -10 10 0 6 -41 10 -104 10 l-103 0 -6 -30 -6 -30 -480 0 c-374 0 -480
3 -484 13 -3 6 -6 -7 -6 -30 l-1 -43 -175 0 -175 0 0 -26 0 -25 -145 3 -145 3
0 -32 0 -33 -475 0 c-416 0 -475 -2 -475 -15 0 -8 -7 -15 -15 -15 -8 0 -15 -7
-15 -15 0 -17 -11 -18 -142 -15 l-88 2 0 -31 0 -31 -62 -1 c-35 -1 -121 -1
-191 0 -82 1 -126 -3 -122 -9 3 -6 -1 -7 -9 -4 -11 4 -16 0 -16 -15 l0 -21
-430 0 -430 0 0 -26 c0 -34 -28 -63 -41 -43 -8 12 -10 12 -18 0 -6 -9 -11 -10
-15 -2 -4 6 -39 11 -85 11 l-78 0 5 -30 4 -30 -231 0 -231 0 0 -30 0 -30 -120
0 -120 0 0 25 c0 14 -6 25 -12 26 -10 0 -10 2 0 6 17 7 16 63 -2 63 -10 0 -15
23 -19 87 -4 69 -9 90 -24 100 -16 13 -19 11 -26 -24 -4 -21 -16 -72 -27 -113
-10 -41 -23 -138 -30 -215 -6 -77 -20 -214 -31 -305 -10 -91 -21 -183 -23
-205 -6 -53 -24 -322 -31 -461 -2 -62 -7 -118 -9 -125 -3 -8 -7 -61 -10 -117
-3 -57 -8 -107 -10 -111 -2 -3 -7 -58 -11 -121 -3 -63 -10 -153 -15 -200 -5
-47 -14 -139 -20 -205 -15 -177 -29 -312 -40 -380 -11 -64 -25 -270 -35 -480
-3 -71 -8 -157 -10 -190 -3 -33 -9 -146 -15 -251 -5 -105 -14 -235 -20 -290
-14 -147 -18 -236 -25 -625 -3 -195 -8 -374 -10 -399 -16 -167 -17 -263 -4
-270 7 -5 17 -6 21 -4 12 7 10 44 -2 44 -5 0 -10 18 -10 40 0 51 18 53 22 3 3
-33 7 -38 31 -41 27 -3 27 -2 27 52 0 52 11 73 23 44 3 -7 6 26 6 75 l1 87
115 0 c96 0 115 3 115 15 0 12 14 15 63 16 34 1 82 2 107 3 25 1 53 -2 63 -7
14 -7 20 -4 24 12 5 20 12 21 128 21 118 0 124 1 146 25 24 24 25 25 207 25
l182 0 0 30 0 30 286 0 c250 0 285 2 280 15 -5 13 17 15 159 15 142 0 165 2
165 15 0 14 21 16 160 13 l160 -3 0 32 0 32 138 3 c103 2 136 6 135 16 -2 6 6
12 17 12 11 0 20 5 20 10 0 6 70 10 190 10 162 0 190 2 190 15 0 13 22 15 139
15 111 0 143 3 155 15 12 13 55 15 260 15 212 0 246 2 246 15 0 8 7 15 15 15
8 0 15 7 15 15 0 13 28 15 190 15 162 0 190 2 190 15 0 8 7 15 15 15 8 0 15 7
15 15 0 13 52 15 410 15 l410 0 6 25 6 25 184 0 c157 0 184 2 184 15 0 12 19
15 115 15 96 0 115 3 115 15 0 15 13 19 63 15 19 -1 27 3 27 14 0 14 21 16
159 16 136 0 160 2 163 15 2 13 26 16 148 17 179 2 190 4 190 33 0 22 2 22
117 19 74 -1 119 -6 121 -13 2 -6 17 -11 33 -11 22 0 29 -5 29 -20 0 -11 6
-20 14 -20 10 0 15 -17 18 -60 3 -57 -3 -75 -16 -47 -5 10 -7 10 -12 0 -7 -15
-64 -18 -64 -3 0 6 -9 10 -20 10 -18 0 -20 7 -20 60 0 55 -11 78 -23 48 -4
-10 -8 -9 -16 2 -10 13 -12 13 -21 0 -9 -13 -11 -13 -20 0 -9 13 -11 13 -20 0
-9 -13 -11 -13 -19 -1 -18 27 -41 -12 -41 -69 0 -50 1 -51 28 -48 23 3 27 -1
30 -24 l3 -28 85 0 84 0 0 -30 c0 -26 3 -30 29 -30 27 0 29 -3 35 -51 5 -39
10 -49 19 -40 17 17 27 13 27 -9 0 -16 7 -20 30 -20 23 0 30 -4 30 -20 0 -12
-7 -20 -16 -20 -9 0 -26 -10 -37 -22 -13 -16 -21 -19 -24 -10 -3 6 -13 12 -24
12 -10 0 -19 5 -19 10 0 6 -9 10 -20 10 -11 0 -20 5 -20 10 0 6 5 10 10 10 6
0 10 5 10 10 0 6 -7 10 -15 10 -12 0 -15 -16 -15 -84 0 -94 2 -96 78 -87 26 3
32 8 32 27 0 27 31 39 81 32 l31 -5 -4 59 -4 58 78 0 c43 0 78 -3 78 -6 0 -4
-10 -15 -22 -26 l-23 -20 68 4 67 3 0 -32 0 -33 110 0 110 0 0 33 c0 32 1 33
35 29 l35 -4 0 -59 0 -59 95 0 c78 0 95 3 95 15 0 10 10 15 30 15 27 0 30 3
30 30 0 21 5 30 16 30 13 0 15 8 12 40 l-4 40 43 0 c24 0 43 -4 43 -10 0 -5 9
-10 21 -10 20 0 20 -4 18 -156 -2 -117 -7 -160 -17 -171 -9 -8 -13 -31 -12
-61 4 -71 1 -112 -7 -111 -22 4 -32 -3 -27 -16 4 -9 0 -15 -10 -15 -9 0 -16
-8 -16 -20 0 -23 -39 -62 -54 -53 -6 3 -5 0 2 -8 11 -12 14 -12 22 1 5 8 12
12 15 8 4 -3 -17 -29 -46 -57 -51 -49 -52 -52 -50 -106 1 -42 -2 -55 -14 -55
-9 0 -12 -6 -9 -15 4 -10 0 -15 -15 -15 -14 0 -25 -9 -31 -25 -5 -13 -18 -33
-30 -45 -11 -11 -19 -23 -18 -27 1 -8 -2 -16 -19 -60 -4 -10 -7 -25 -8 -34 -3
-21 -46 -79 -60 -79 -17 0 -42 -35 -50 -70 -5 -21 -11 -30 -21 -26 -8 3 -14 0
-14 -6 0 -12 -88 -98 -100 -98 -4 0 -10 -10 -13 -22 -5 -19 -8 -20 -23 -7 -10
8 -15 9 -11 3 3 -6 -4 -17 -16 -23 -12 -7 -38 -34 -57 -61 -28 -40 -37 -47
-50 -37 -8 6 -12 8 -8 3 9 -10 -88 -96 -108 -96 -10 0 -14 -6 -10 -15 3 -8 2
-14 -2 -14 -21 3 -30 -4 -36 -27 -6 -23 -11 -26 -41 -22 -18 2 -32 1 -30 -3 3
-3 -7 -12 -20 -19 -14 -7 -32 -24 -40 -37 -9 -12 -21 -23 -28 -23 -6 0 -30
-17 -52 -36 -50 -45 -162 -119 -195 -129 -14 -4 -32 -13 -40 -19 -32 -26 -122
-66 -133 -59 -7 3 -9 3 -5 -2 4 -4 -5 -19 -20 -33 -15 -14 -26 -30 -25 -34 2
-4 -2 -8 -9 -8 -21 0 -123 -53 -111 -57 10 -4 10 -10 2 -25 -6 -11 -17 -17
-24 -14 -12 4 -52 -21 -105 -66 -8 -7 -19 -13 -25 -13 -17 -1 -67 -28 -109
-57 -21 -15 -42 -25 -47 -22 -10 6 -47 -12 -67 -33 -7 -7 -20 -13 -28 -13 -9
0 -22 -7 -30 -15 -9 -8 -24 -15 -35 -15 -10 0 -19 -5 -19 -12 0 -6 -3 -9 -6
-5 -4 3 -13 0 -21 -8 -8 -8 -30 -15 -48 -15 -27 0 -38 -6 -49 -27 -8 -16 -15
-22 -16 -15 0 6 -5 12 -11 12 -6 0 -9 -7 -5 -15 5 -14 -5 -20 -27 -16 -5 1
-21 -7 -36 -18 -15 -11 -33 -21 -40 -23 -8 -2 -24 -13 -37 -25 -13 -13 -32
-23 -44 -23 -11 0 -20 -5 -20 -11 0 -6 -9 -8 -20 -4 -11 4 -20 2 -20 -4 0 -6
-6 -11 -14 -11 -7 0 -27 -14 -45 -31 -18 -16 -51 -38 -74 -48 -23 -10 -64 -37
-91 -59 -27 -23 -53 -39 -57 -36 -4 2 -16 -6 -26 -19 -20 -25 -51 -48 -39 -29
5 8 2 10 -8 6 -9 -3 -16 -9 -16 -13 0 -4 -10 -18 -22 -31 -13 -14 -22 -28 -21
-32 2 -5 -3 -7 -10 -5 -6 1 -11 -4 -10 -10 2 -7 -2 -13 -7 -13 -6 0 -13 0 -17
0 -16 -1 -102 -94 -108 -117 -3 -13 -9 -22 -13 -19 -4 2 -24 -11 -45 -29 -21
-18 -41 -35 -45 -37 -19 -8 -55 -60 -57 -81 -3 -26 -52 -107 -65 -107 -4 0
-47 -46 -96 -101 -98 -112 -120 -134 -134 -134 -5 0 -42 -31 -82 -70 -92 -88
-131 -120 -140 -117 -5 1 -8 -6 -8 -15 0 -9 -3 -14 -6 -10 -4 3 -22 -5 -42
-18 -19 -13 -39 -22 -45 -18 -10 6 -137 -46 -137 -57 0 -6 -51 -34 -58 -31 -1
1 -19 -6 -39 -14 -24 -10 -39 -12 -41 -5 -5 13 -42 13 -42 0 0 -6 -29 -9 -67
-8 -72 2 -173 -10 -173 -21 0 -3 -30 -6 -68 -6 -37 0 -92 -6 -122 -12 -30 -7
-87 -13 -126 -13 -43 0 -96 -8 -134 -20 -34 -11 -74 -20 -87 -20 -13 0 -21 -4
-18 -10 3 -5 0 -7 -8 -4 -8 3 -17 -2 -20 -10 -4 -10 -18 -16 -34 -15 l-28 1
25 8 c25 8 25 8 2 9 -13 1 -55 -13 -94 -30 -38 -17 -76 -28 -83 -25 -7 2 -16
2 -19 -1 -3 -4 -40 -6 -81 -6 -42 0 -78 -4 -81 -8 -3 -5 -14 -9 -25 -9 -11 0
-17 -4 -14 -10 3 -5 0 -7 -8 -4 -17 6 -284 -41 -300 -53 -7 -5 -43 -8 -81 -7
-64 1 -124 -11 -137 -29 -3 -5 -30 -10 -60 -12 -30 -1 -56 -4 -59 -5 -3 -1
-27 -3 -55 -4 -27 0 -49 -5 -48 -11 0 -5 -26 -11 -59 -13 -33 -1 -65 -5 -71
-9 -6 -4 -51 -8 -100 -9 -49 -2 -94 -8 -101 -14 -8 -5 -21 -8 -30 -4 -9 4 -16
1 -16 -6 0 -7 -7 -10 -16 -6 -9 3 -21 3 -27 -1 -7 -4 -31 -8 -54 -9 -23 -1
-57 -6 -75 -12 -18 -5 -62 -10 -98 -11 -36 -1 -91 -6 -123 -12 -31 -5 -62 -7
-67 -4 -6 3 -16 3 -22 -2 -7 -4 -17 -9 -23 -10 -60 -15 -108 -25 -149 -28 -26
-3 -54 -9 -60 -15 -7 -5 -37 -12 -67 -14 -30 -2 -70 -7 -89 -10 -19 -3 -84
-12 -145 -21 -60 -9 -130 -21 -155 -27 -25 -6 -68 -12 -96 -13 -28 -2 -77 -8
-110 -15 -32 -7 -85 -12 -117 -11 -54 1 -61 -1 -90 -32 -18 -18 -40 -46 -50
-62 -87 -149 -206 -245 -302 -245 -37 0 -30 12 24 42 89 50 192 193 229 318
46 153 72 434 72 769 0 130 4 382 10 561 9 335 16 633 25 1155 3 165 10 410
15 545 5 135 12 324 15 420 3 96 7 222 10 280 3 58 7 236 10 395 9 533 16 767
31 1110 8 187 23 570 35 850 11 281 24 571 29 645 8 132 19 317 41 710 5 107
14 260 19 340 9 143 20 371 40 830 6 130 13 256 15 280 5 38 39 585 60 965 4
55 10 141 16 190 20 197 28 300 38 540 15 318 31 627 36 685 13 148 28 401 40
690 4 80 17 303 30 495 13 193 29 454 35 580 23 480 51 709 100 805 56 110
162 212 290 279 78 41 87 43 208 52 70 5 179 18 242 29 63 10 169 24 235 30
66 7 154 18 195 25 41 7 113 16 160 20 116 9 363 36 371 40 3 2 86 9 185 15
254 15 394 28 472 45 37 7 126 19 197 25 71 6 160 18 197 25 38 8 133 20 211
25 78 6 203 19 277 30 74 10 230 24 345 30 120 7 253 20 310 32 55 11 154 24
220 29 66 5 170 18 230 28 61 11 157 22 215 26 58 3 166 15 240 25 74 11 245
27 380 35 151 9 278 22 330 34 47 10 130 22 185 25 55 4 163 18 240 31 77 13
192 26 255 29 63 3 151 12 195 20 99 17 170 24 405 36 107 6 225 19 280 30 52
11 153 25 223 30 70 6 174 19 230 29 56 11 154 22 217 26 63 3 174 15 245 25
72 11 234 26 361 34 133 9 271 24 325 35 52 11 155 25 229 31 74 5 164 17 200
26 36 8 133 19 215 24 83 5 191 16 240 24 90 15 252 29 460 41 61 4 166 17
235 30 69 13 172 26 229 30 57 3 145 15 195 25 50 10 141 21 201 25 61 3 171
15 245 25 122 17 241 28 505 45 50 4 132 15 184 26 52 10 151 23 220 29 69 5
171 18 226 29 55 10 148 22 207 25 112 7 225 19 318 36 30 5 156 16 280 24
124 9 268 24 320 35 52 11 147 24 210 30 63 6 153 18 200 26 47 8 144 20 215
26 72 5 191 19 265 30 74 11 216 24 315 30 99 6 230 20 290 30 61 11 169 26
240 34 72 8 164 21 205 29 79 16 207 31 350 41 47 4 103 10 125 15 60 13 230
29 418 40 92 5 172 12 177 15 13 8 161 32 275 45 55 6 152 20 215 30 154 26
214 30 285 18 50 -9 117 -4 385 25 179 20 357 39 395 42 39 3 117 12 175 20
58 8 186 24 285 35 99 11 207 24 240 29 87 13 157 13 217 0z m-8542 -5364 c0
-16 -35 -21 -44 -6 -8 12 4 21 26 21 10 0 18 -7 18 -15z m7820 -195 c0 -5 -4
-10 -10 -10 -5 0 -10 5 -10 10 0 6 5 10 10 10 6 0 10 -4 10 -10z m160 0 c0 -5
-10 -10 -22 -10 -19 0 -20 2 -8 10 19 13 30 13 30 0z m-540 -20 c0 -5 -4 -10
-10 -10 -5 0 -10 5 -10 10 0 6 5 10 10 10 6 0 10 -4 10 -10z m720 0 c0 -5 -4
-10 -10 -10 -5 0 -10 5 -10 10 0 6 5 10 10 10 6 0 10 -4 10 -10z m-1333 -152
c-3 -8 -6 -5 -6 6 -1 11 2 17 5 13 3 -3 4 -12 1 -19z m-9907 -33 c0 -8 -4 -15
-10 -15 -5 0 -10 7 -10 15 0 8 5 15 10 15 6 0 10 -7 10 -15z m9220 5 c0 -5 -4
-10 -10 -10 -5 0 -10 5 -10 10 0 6 5 10 10 10 6 0 10 -4 10 -10z m-3460 -20
c0 -5 -4 -10 -10 -10 -5 0 -10 5 -10 10 0 6 5 10 10 10 6 0 10 -4 10 -10z
m3307 -82 c-3 -7 -5 -2 -5 12 0 14 2 19 5 13 2 -7 2 -19 0 -25z m-1127 2 c0
-5 -4 -10 -10 -10 -5 0 -10 5 -10 10 0 6 5 10 10 10 6 0 10 -4 10 -10z m40 0
c0 -5 -4 -10 -10 -10 -5 0 -10 5 -10 10 0 6 5 10 10 10 6 0 10 -4 10 -10z m40
0 c0 -5 -4 -10 -10 -10 -5 0 -10 5 -10 10 0 6 5 10 10 10 6 0 10 -4 10 -10z
m-120 -20 c0 -5 -4 -10 -10 -10 -5 0 -10 5 -10 10 0 6 5 10 10 10 6 0 10 -4
10 -10z m220 0 c0 -5 -4 -10 -10 -10 -5 0 -10 5 -10 10 0 6 5 10 10 10 6 0 10
-4 10 -10z m-780 -40 c0 -5 -4 -10 -10 -10 -5 0 -10 5 -10 10 0 6 5 10 10 10
6 0 10 -4 10 -10z m-120 -60 c0 -5 -4 -10 -10 -10 -5 0 -10 5 -10 10 0 6 5 10
10 10 6 0 10 -4 10 -10z m-480 -40 c0 -5 -4 -10 -10 -10 -5 0 -10 5 -10 10 0
6 5 10 10 10 6 0 10 -4 10 -10z m160 0 c0 -5 -4 -10 -10 -10 -5 0 -10 5 -10
10 0 6 5 10 10 10 6 0 10 -4 10 -10z m-440 -20 c0 -5 -9 -10 -20 -10 -11 0
-20 5 -20 10 0 6 9 10 20 10 11 0 20 -4 20 -10z m-557 -55 c-7 -21 -13 -19
-13 6 0 11 4 18 10 14 5 -3 7 -12 3 -20z m337 15 c0 -5 -4 -10 -10 -10 -5 0
-10 5 -10 10 0 6 5 10 10 10 6 0 10 -4 10 -10z m-60 -21 c0 -5 -4 -9 -10 -9
-5 0 -10 7 -10 16 0 8 5 12 10 9 6 -3 10 -10 10 -16z m540 1 c0 -5 -4 -10 -10
-10 -5 0 -10 5 -10 10 0 6 5 10 10 10 6 0 10 -4 10 -10z m-8280 -620 c0 -5 -4
-10 -10 -10 -5 0 -10 5 -10 10 0 6 5 10 10 10 6 0 10 -4 10 -10z m40 -36 c0
-8 -4 -14 -10 -14 -5 0 -10 9 -10 21 0 11 5 17 10 14 6 -3 10 -13 10 -21z m0
-84 c0 -5 -13 -10 -30 -10 -16 0 -30 5 -30 10 0 6 14 10 30 10 17 0 30 -4 30
-10z m-1000 -220 c0 -5 -18 -10 -40 -10 -22 0 -40 -4 -40 -10 0 -5 -4 -10 -10
-10 -5 0 -10 9 -10 20 0 17 7 20 50 20 28 0 50 -4 50 -10z m-200 -20 c0 -5 -2
-10 -4 -10 -3 0 -8 5 -11 10 -3 6 -1 10 4 10 6 0 11 -4 11 -10z m-700 -36 c0
-3 -7 -12 -15 -21 -20 -19 -32 -10 -14 11 14 15 29 21 29 10z m-60 -80 c0 -2
-15 -4 -32 -4 -23 0 -29 3 -19 9 12 8 51 4 51 -5z m-260 -4 c0 -5 -4 -10 -10
-10 -5 0 -10 5 -10 10 0 6 5 10 10 10 6 0 10 -4 10 -10z m200 -20 c0 -5 -4
-10 -10 -10 -5 0 -10 5 -10 10 0 6 5 10 10 10 6 0 10 -4 10 -10z m-1080 -40
c0 -5 -4 -10 -10 -10 -5 0 -10 5 -10 10 0 6 5 10 10 10 6 0 10 -4 10 -10z
m-160 -60 c0 -5 -4 -10 -10 -10 -5 0 -10 5 -10 10 0 6 5 10 10 10 6 0 10 -4
10 -10z m-540 -44 c0 -4 -9 -1 -19 6 -11 7 -17 16 -15 20 5 8 34 -15 34 -26z
m80 24 c0 -5 -4 -10 -10 -10 -5 0 -10 5 -10 10 0 6 5 10 10 10 6 0 10 -4 10
-10z m147 -62 c-3 -7 -5 -2 -5 12 0 14 2 19 5 13 2 -7 2 -19 0 -25z m-547 -8
c0 -11 -4 -20 -10 -20 -5 0 -10 9 -10 20 0 11 5 20 10 20 6 0 10 -9 10 -20z
m80 10 c0 -5 -4 -10 -10 -10 -5 0 -10 5 -10 10 0 6 5 10 10 10 6 0 10 -4 10
-10z m40 0 c0 -5 -4 -10 -10 -10 -5 0 -10 5 -10 10 0 6 5 10 10 10 6 0 10 -4
10 -10z m-220 -20 c0 -5 -4 -10 -10 -10 -5 0 -10 5 -10 10 0 6 5 10 10 10 6 0
10 -4 10 -10z m-480 -16 c0 -7 -27 -34 -34 -34 -3 0 -6 9 -6 20 0 13 7 20 20
20 11 0 20 -3 20 -6z m-1100 -24 c0 -5 -2 -10 -4 -10 -3 0 -8 5 -11 10 -3 6
-1 10 4 10 6 0 11 -4 11 -10z m60 -40 c0 -5 -7 -10 -15 -10 -8 0 -15 5 -15 10
0 6 7 10 15 10 8 0 15 -4 15 -10z m580 -20 c0 -5 -4 -10 -10 -10 -5 0 -10 5
-10 10 0 6 5 10 10 10 6 0 10 -4 10 -10z m64 -6 c8 -21 1 -28 -18 -21 -9 4
-13 13 -10 22 8 20 20 19 28 -1z m116 6 c0 -5 -4 -10 -10 -10 -5 0 -10 5 -10
10 0 6 5 10 10 10 6 0 10 -4 10 -10z m-740 -20 c0 -5 -4 -10 -10 -10 -5 0 -10
5 -10 10 0 6 5 10 10 10 6 0 10 -4 10 -10z m595 -40 c3 -5 1 -10 -4 -10 -6 0
-11 5 -11 10 0 6 2 10 4 10 3 0 8 -4 11 -10z m12313 -2072 c2 -12 -11 -21 -47
-33 -28 -9 -53 -21 -56 -26 -13 -19 -33 -8 -37 22 -7 46 13 61 81 57 42 -2 57
-7 59 -20z m5192 -378 c0 -38 2 -40 30 -40 17 0 30 -4 30 -10 0 -5 -5 -10 -11
-10 -5 0 -7 -4 -4 -10 3 -5 2 -10 -3 -10 -5 0 -10 -27 -11 -60 -1 -40 2 -60 9
-60 9 0 10 -20 6 -71 -4 -41 -3 -76 3 -83 6 -7 3 -30 -9 -65 -11 -29 -19 -77
-18 -105 1 -67 -19 -339 -32 -443 -6 -45 -10 -94 -9 -110 2 -45 -30 -442 -41
-519 -6 -38 -17 -136 -25 -219 -8 -82 -17 -168 -20 -190 -6 -38 -22 -201 -45
-455 -6 -63 -17 -155 -25 -205 -8 -49 -19 -144 -25 -210 -11 -128 -53 -360
-75 -412 -13 -31 -14 -31 -72 -26 -44 4 -71 0 -113 -16 -60 -23 -73 -26 -50
-11 13 8 13 10 -1 10 -9 0 -19 -3 -23 -7 -3 -4 -26 -8 -50 -9 -52 -2 -172 -23
-204 -35 -34 -13 -65 -11 -56 4 6 9 4 9 -7 1 -17 -13 -100 -35 -109 -29 -4 3
-22 0 -41 -6 -19 -6 -77 -12 -129 -13 -52 -2 -108 -8 -123 -15 -16 -6 -39 -11
-53 -11 -13 0 -24 -5 -24 -11 0 -6 -8 -9 -19 -6 -10 2 -52 -1 -92 -8 -41 -7
-76 -11 -78 -9 -2 2 -9 -1 -16 -6 -6 -5 -27 -10 -46 -11 -19 -2 -38 -6 -44
-10 -16 -11 -148 -29 -214 -29 -39 0 -61 -4 -61 -11 0 -8 -13 -9 -40 -5 -28 4
-54 0 -90 -14 -28 -11 -61 -18 -73 -15 -13 4 -65 -3 -117 -15 -52 -12 -105
-18 -117 -15 -13 3 -23 1 -23 -5 0 -7 -5 -8 -12 -3 -7 4 -22 8 -33 9 -11 1
-24 2 -30 4 -21 5 -56 0 -51 -9 3 -4 -13 -5 -37 0 -58 11 -157 11 -157 0 0 -6
-12 -6 -30 0 -16 6 -30 14 -30 18 0 4 -15 9 -32 9 -45 3 -60 6 -85 20 -12 7
-35 12 -51 12 -16 0 -43 7 -58 15 -16 8 -36 15 -44 14 -10 0 -11 -2 -3 -6 8
-3 11 -14 7 -27 -5 -20 1 -26 36 -40 23 -9 45 -14 50 -11 4 3 10 0 12 -5 2 -6
11 -12 20 -14 9 -1 43 -23 75 -49 71 -58 144 -107 220 -148 146 -77 192 -123
226 -226 14 -40 21 -75 17 -78 -5 -3 -11 -1 -15 5 -10 16 -114 80 -183 113
-66 31 -204 65 -392 98 -168 29 -393 75 -575 119 -88 21 -207 48 -265 60 -230
47 -713 191 -950 283 -233 91 -288 116 -499 227 -170 90 -451 306 -451 348 0
28 50 10 115 -44 92 -74 429 -252 595 -314 47 -17 108 -41 135 -52 28 -11 70
-26 95 -33 25 -7 65 -22 90 -33 46 -21 117 -40 271 -72 48 -10 97 -24 109 -30
13 -7 57 -17 98 -22 41 -5 94 -18 118 -28 45 -21 75 -24 137 -14 22 4 37 12
37 20 0 8 -5 14 -11 14 -6 0 -9 6 -6 13 2 7 16 11 33 9 16 -1 36 -2 44 -2 8 1
97 2 197 3 160 2 225 10 186 24 -7 3 -13 11 -13 18 0 21 -20 29 -92 36 -55 5
-73 11 -94 32 -17 18 -41 28 -72 32 -26 3 -67 15 -92 25 -25 11 -67 24 -95 29
-141 26 -213 43 -240 55 -16 8 -57 17 -90 21 -33 4 -73 15 -90 25 -16 10 -57
21 -90 25 -33 4 -76 14 -95 21 -19 7 -78 23 -130 35 -52 11 -115 29 -140 39
-25 10 -63 21 -85 24 -53 9 -184 51 -500 161 -104 37 -218 76 -252 88 l-63 21
-29 -22 c-28 -20 -30 -20 -45 -3 -9 10 -16 23 -16 29 0 7 -4 12 -9 12 -4 0
-16 26 -26 58 -10 31 -31 84 -47 117 -15 33 -28 69 -28 80 0 12 -9 39 -20 60
-11 22 -25 67 -30 100 -16 97 -20 119 -26 135 -3 8 -8 74 -11 145 -3 72 -8
182 -13 245 -4 63 -7 201 -6 305 l1 191 33 50 c17 28 32 55 32 61 0 5 11 20
24 32 13 13 27 34 31 48 7 29 56 105 91 143 63 67 74 83 74 106 0 15 11 35 28
49 15 14 31 29 36 34 4 5 23 25 42 45 19 19 34 40 34 46 0 6 11 15 24 20 15 5
29 22 36 44 8 25 18 36 31 36 11 0 18 4 15 9 -3 5 -1 23 5 40 9 26 13 29 25
17 8 -8 14 -19 14 -25 0 -7 41 -11 120 -11 102 0 120 2 120 16 0 13 13 15 85
12 76 -3 85 -1 85 15 0 15 10 17 70 17 40 0 70 4 70 10 0 6 50 10 130 10 109
0 130 2 130 15 0 13 37 15 275 15 l275 0 0 30 0 30 188 2 c143 2 186 6 185 16
-2 9 26 12 117 12 102 0 120 2 120 16 0 8 5 12 10 9 6 -3 10 3 10 14 0 20 5
21 189 21 159 0 190 2 195 15 5 13 43 15 258 16 139 0 247 3 241 6 -7 2 -13
13 -13 24 0 18 10 19 199 19 175 0 200 2 203 16 3 14 25 16 173 16 94 0 162 2
152 5 -14 3 -15 8 -7 18 6 7 20 11 31 8 13 -4 19 -1 17 8 -2 11 20 15 109 17
83 2 114 6 123 17 10 13 57 15 281 15 l269 0 0 24 c0 13 -6 27 -12 29 -7 3 87
6 210 6 141 1 222 5 222 11 0 6 57 10 150 10 127 0 150 2 150 15 0 10 10 15
30 15 20 0 30 5 30 15 0 12 18 15 105 15 l105 0 0 -40z m-11580 -1491 c0 -16
-4 -29 -10 -29 -5 0 -10 16 -10 36 0 21 4 33 10 29 6 -3 10 -19 10 -36z m420
-119 c0 -5 -4 -10 -10 -10 -5 0 -10 5 -10 10 0 6 5 10 10 10 6 0 10 -4 10 -10z
m460 0 c0 -5 -10 -10 -23 -10 -13 0 -33 -9 -45 -20 -18 -17 -35 -20 -127 -20
-63 0 -105 4 -105 10 0 6 -9 10 -19 10 -11 0 -22 6 -24 13 -4 9 -8 8 -16 -3
-10 -13 -12 -13 -22 0 -8 11 -12 12 -16 3 -8 -20 -23 -15 -23 7 0 19 7 20 210
20 133 0 210 -4 210 -10z m-440 -140 c0 -5 -4 -10 -10 -10 -5 0 -10 5 -10 10
0 6 5 10 10 10 6 0 10 -4 10 -10z m5460 -1100 c0 -5 -4 -10 -10 -10 -5 0 -10
5 -10 10 0 6 5 10 10 10 6 0 10 -4 10 -10z m-4129 -647 c-13 -25 -149 -162
-197 -198 -21 -16 -71 -51 -111 -77 -39 -27 -74 -52 -78 -58 -3 -5 -36 -26
-73 -47 -37 -20 -112 -64 -167 -97 -55 -33 -170 -95 -255 -139 -85 -43 -175
-89 -200 -102 -25 -13 -135 -67 -245 -120 -331 -160 -548 -266 -590 -287 -156
-78 -372 -193 -435 -231 -41 -25 -118 -70 -170 -101 -101 -60 -219 -142 -285
-198 -46 -39 -140 -108 -148 -108 -2 0 -31 -25 -63 -56 -54 -51 -77 -58 -58
-16 4 9 8 20 8 24 1 4 7 13 14 20 6 6 12 20 12 29 0 9 7 22 16 29 18 16 46 79
39 90 -2 4 11 20 30 36 29 24 35 36 35 66 l0 38 -60 0 -60 0 0 30 c0 30 -1 30
-55 30 -52 0 -55 1 -55 25 0 24 -3 25 -60 25 l-60 0 0 30 c0 20 -5 30 -15 30
-8 0 -15 7 -15 15 0 8 -7 15 -15 15 -8 0 -15 7 -15 15 0 9 -9 15 -25 15 -14 0
-25 2 -25 5 0 2 5 26 11 54 8 40 22 62 70 113 33 35 62 74 66 86 3 15 8 19 13
13 4 -8 19 1 41 24 19 19 39 35 44 35 14 0 162 100 150 100 -14 1 106 63 130
67 11 2 44 12 73 23 28 11 52 17 52 13 0 -3 8 1 18 9 24 22 98 53 163 68 29 8
61 20 70 27 8 7 30 13 47 13 18 0 32 5 32 10 0 6 13 10 28 10 16 0 32 3 35 6
4 4 47 6 97 5 88 -2 90 -2 91 21 0 13 3 17 6 11 2 -7 11 -13 19 -13 17 0 19
-46 2 -54 -7 -3 5 -4 27 -3 38 2 40 1 43 -30 3 -31 6 -33 43 -33 28 0 39 -4
39 -15 0 -8 7 -15 15 -15 8 0 15 -7 15 -15 0 -12 13 -15 60 -15 57 0 60 -1 60
-25 0 -14 4 -25 9 -25 5 0 11 -12 13 -27 4 -39 40 -38 134 3 41 18 76 32 77
32 6 1 46 17 82 32 23 9 64 23 92 29 29 7 57 19 64 27 6 8 17 14 23 14 6 0 38
13 71 29 33 17 94 44 135 62 65 27 393 183 443 210 49 27 133 73 232 129 100
56 152 89 370 233 77 50 90 56 76 30z"/>
<path d="M22165 26080 c-14 -6 -2 -9 43 -9 34 -1 62 3 62 7 0 11 -80 13 -105
2z"/>
<path d="M20088 25913 c-10 -2 -18 -9 -18 -14 0 -5 56 -9 129 -9 146 0 229 8
209 21 -13 9 -289 10 -320 2z"/>
<path d="M19555 25851 c-25 -5 -27 -8 -12 -14 38 -15 257 -3 257 14 0 10 -200
10 -245 0z"/>
<path d="M19050 25791 c0 -5 25 -10 55 -10 30 0 55 5 55 10 0 5 -25 9 -55 9
-30 0 -55 -4 -55 -9z"/>
<path d="M18120 25753 c-36 -1 -91 -8 -122 -14 -51 -10 -55 -13 -42 -27 14
-13 44 -14 222 -8 114 4 225 10 247 12 22 3 48 5 58 5 9 0 15 4 12 9 -10 15
-238 30 -375 23z"/>
<path d="M17560 25693 c-101 -6 -148 -15 -154 -28 -3 -8 -2 -14 2 -13 4 1 15
-2 26 -7 18 -8 389 10 447 22 16 3 29 12 29 19 0 11 -30 13 -152 11 -84 -1
-173 -3 -198 -4z"/>
<path d="M16925 25631 c-53 -5 -70 -10 -70 -21 0 -13 23 -15 145 -15 236 1
304 9 270 30 -15 9 -260 13 -345 6z"/>
<path d="M14035 25620 c3 -5 15 -10 26 -10 11 0 17 5 14 10 -3 6 -15 10 -26
10 -11 0 -17 -4 -14 -10z"/>
<path d="M16800 25610 c0 -5 9 -10 20 -10 11 0 20 5 20 10 0 6 -9 10 -20 10
-11 0 -20 -4 -20 -10z"/>
<path d="M15300 13269 c0 -5 5 -7 10 -4 6 3 10 8 10 11 0 2 -4 4 -10 4 -5 0
-10 -5 -10 -11z"/>
<path d="M8436 12304 c-10 -25 -7 -434 3 -434 22 0 31 73 32 240 0 97 -3 184
-7 193 -8 21 -20 22 -28 1z"/>
<path d="M24601 14244 c0 -11 3 -14 6 -6 3 7 2 16 -1 19 -3 4 -6 -2 -5 -13z"/>
<path d="M23628 11213 c-19 -5 -25 -32 -8 -34 14 -2 22 -5 43 -13 19 -9 47 -1
47 13 0 5 -7 17 -16 25 -15 16 -32 18 -66 9z"/>
<path d="M23900 11149 c0 -5 -4 -8 -9 -5 -5 4 -8 -2 -7 -11 4 -24 86 -32 86
-9 0 17 -29 36 -54 36 -9 0 -16 -5 -16 -11z"/>
</g>
</svg>
